<?xml version="1.0" encoding="UTF-8"?><svg id="Logo" xmlns="http://www.w3.org/2000/svg" viewBox="0 0 955.04 212.44"><defs><style>.cls-1{stroke-width:0px;}.cls-1,.cls-2{fill:#29b8b2;}.cls-2{stroke:#29b8b2;stroke-miterlimit:10;stroke-width:2px;}</style></defs><path class="cls-1" d="m177.51,118.82l-8.41-4.29c-4.53-2.34-8.45-4.36-8.45-8.88s3.95-7.49,10.06-7.49c4.87,0,9.56,2.2,14.73,6.92l10.08-10.2c-6.34-7.5-15.19-11.62-24.97-11.62-14.41,0-25.28,9.55-25.28,22.22,0,9.67,6.12,17.27,19.27,23.92l7.24,3.7c6.46,3.31,10.76,6.55,10.76,11.57s-5.19,9.25-11.83,9.25c-5.48,0-12.42-3.46-17.81-8.84l-10.1,11.08c6.83,8.08,15.84,12.17,26.78,12.17,16.68,0,28.33-10,28.33-24.31,0-10.63-5.72-17.7-20.4-25.21Z"/><path class="cls-1" d="m225.68,78.91c-5.81,0-10.54,4.47-10.54,9.95,0,6.37,4.73,11.56,10.54,11.56s10.54-4.73,10.54-10.54-4.73-10.97-10.54-10.97Z"/><rect class="cls-1" x="216.85" y="114.57" width="17.66" height="52.02"/><path class="cls-1" d="m350.27,98.65c7.51,0,16.46,3.94,16.46,22.73v45.21h17.66v-48.1c0-10.45-.44-19.66-5.86-26.47-4.58-5.8-12.56-9.26-21.36-9.26-11.25,0-18.86,4.08-27.14,14.56l-1.78,2.25-1.31-2.55c-4.81-9.33-12.85-14.26-23.25-14.26-9.67,0-18.42,3.96-25.3,11.45l-3.21,3.5v-12.7h-17.66v81.59h17.66v-39.91c0-17.55,7.54-28.03,20.16-28.03,14.93,0,16.95,14.41,16.95,28.51v39.43h17.66v-40.23c0-17.35,7.6-27.71,20.32-27.71Z"/><path class="cls-1" d="m578.65,168.84c16.51,0,27.76-5.01,36.37-16.23l-14.82-7.01c-6.19,5.67-12.46,7.99-21.55,7.99-13.72,0-23.59-8.16-25.76-21.31l-.35-2.15h69.12c.01-.23.02-.44.04-.66v-.08c.04-.67.08-1.34.08-2.23,0-26.15-17.87-44.41-43.44-44.41-27.59,0-42.48,22.13-42.48,42.96,0,24.99,18,43.12,42.8,43.12Zm-24.69-54.39c4.31-11.12,13.08-17.24,24.69-17.24,12.44,0,22.11,6.67,25.23,17.4l.69,2.37h-51.58l.98-2.52Z"/><path class="cls-1" d="m719.19,166.59v-81.59h-17.66v11.93l-3.16-3.16c-7.42-7.42-15.76-11.02-25.51-11.02-21.84,0-38.3,18.54-38.3,43.12s17.04,42.96,38.79,42.96c9.75,0,17.47-3.3,25.05-10.72l3.14-3.08v11.54h17.66Zm-42-13.65c-14.38,0-24.82-11.45-24.82-27.23s10.44-27.07,24.82-27.07,25.3,11.32,25.3,26.91-10.4,27.39-25.3,27.39Z"/><polygon class="cls-1" points="793.39 85.01 770.65 138.13 747.91 85.01 730.09 85.01 764.96 166.59 776.33 166.59 811.06 85.01 793.39 85.01"/><path class="cls-1" d="m898.66,129.47h0c.04-.69.08-1.39.08-2.31,0-26.15-17.87-44.41-43.44-44.41-27.59,0-42.48,22.13-42.48,42.96,0,24.99,18,43.12,42.8,43.12,16.51,0,27.76-5.01,36.37-16.23l-14.82-7.01c-6.19,5.67-12.46,7.99-21.55,7.99-13.72,0-23.59-8.16-25.76-21.31l-.35-2.15h69.12c.01-.22.02-.44.04-.66Zm-68.71-12.5l.98-2.52c4.31-11.12,13.08-17.24,24.69-17.24,12.44,0,22.11,6.67,25.23,17.4l.69,2.37h-51.58Z"/><path class="cls-1" d="m944.2,97.85c1.56,0,3.31.38,5.2,1.12l5.33-14.82c-1.72-.71-3.89-1.39-7-1.39-6.92,0-12.86,4.35-16.3,11.93l-3.53,7.77v-17.45h-14.77v81.59h17.66v-32.68c0-4.68,0-9.99.16-14.68.5-12.99,5.7-21.38,13.25-21.38Z"/><path class="cls-1" d="m507.33,85.01v43.83c0,14.67-8.11,21.23-16.16,21.23-11.64,0-18.31-7.74-18.31-21.23v-43.83h-21.16v43.83c0,13.49-6.67,21.23-18.31,21.23-8.04,0-16.16-6.56-16.16-21.23v-43.83h-16.92v46.72c0,11.4,1.04,18.88,6.52,25.77,4.91,6.22,16.63,11.47,25.6,11.47,11.71,0,20.87-4.48,28.84-14.12l1-1.24,1.01,1.25c7.97,9.62,17.13,14.1,28.83,14.1,8.97,0,20.69-5.25,25.6-11.46,5.49-6.9,6.53-14.38,6.53-25.77v-46.72h-16.92Z"/><path class="cls-2" d="m69.58,149.19h-35.69c-1.61-6.64-7.59-11.6-14.71-11.6-8.36,0-15.15,6.8-15.15,15.15s6.8,15.15,15.15,15.15c7.13,0,13.11-4.95,14.71-11.6h32.13v45.33h-10.35v-28.46c0-1.96-1.59-3.56-3.56-3.56s-3.56,1.59-3.56,3.56v32.02c0,1.96,1.59,3.56,3.56,3.56h17.46c1.96,0,3.56-1.59,3.56-3.56v-52.44c0-1.96-1.59-3.56-3.56-3.56Zm-50.4,11.6c-4.43,0-8.04-3.61-8.04-8.04s3.61-8.04,8.04-8.04,8.04,3.61,8.04,8.04-3.61,8.04-8.04,8.04Z"/><path class="cls-2" d="m106.4,137.59c-6.8,0-12.56,4.5-14.48,10.67h-4.24V49.95c0-.55-.13-1.1-.38-1.59L65.97,5.66c-.6-1.2-1.82-1.96-3.16-1.97-1.38,0-2.57.74-3.18,1.93l-21.74,42.3c-.26.5-.39,1.06-.39,1.63v86.8c0,.95.38,1.86,1.05,2.53.67.67,1.56,1.01,2.54,1.03l21.74-.2c1.95-.02,3.53-1.61,3.53-3.56v-59.05c0-1.96-1.59-3.56-3.56-3.56s-3.56,1.59-3.56,3.56v55.52l-14.63.13V50.41L62.74,15.12l17.83,35.67v101.03c0,1.96,1.59,3.56,3.56,3.56h7.36c1.25,7.1,7.45,12.52,14.91,12.52,8.36,0,15.15-6.8,15.15-15.15s-6.8-15.15-15.15-15.15Zm0,23.19c-4.43,0-8.04-3.61-8.04-8.04s3.61-8.04,8.04-8.04,8.04,3.61,8.04,8.04-3.61,8.04-8.04,8.04Z"/></svg>