<?xml version="1.0" encoding="utf-8"?>
<!-- Generator: Adobe Illustrator 27.3.1, SVG Export Plug-In . SVG Version: 6.00 Build 0)  -->
<svg version="1.1" xmlns="http://www.w3.org/2000/svg" xmlns:xlink="http://www.w3.org/1999/xlink" x="0px" y="0px"
	 viewBox="0 0 1920 303.5" style="enable-background:new 0 0 1920 303.5;" xml:space="preserve">
<style type="text/css">
	.st0{fill:#FFFFFF;}
	.st1{fill:url(#SVGID_1_);}
</style>
<g id="Layer_1">
	<g>
		<g>
			<path class="st0" d="M0,303.5v-50.2h274.8c19.8,0,32.5-3.4,32.5-18.1v-48.5c0-13.8-13.1-18.5-32.5-18.5H123.1
				c-71.1,0-98.3-29.7-98.3-73.7V73.7C24.8,29.8,52,0,123.1,0h274.8v49.8H123.1c-18.5,0-33,9.7-33,23.5v21.5
				c0,12.9,13.2,23.5,33,23.5h151.7c71.1,0,98.3,24.8,98.3,68.8v42.2c0,44-27.2,74.1-98.3,74.1L0,303.5L0,303.5z"/>
			<path class="st0" d="M505.6,193.6v109.9h-62.8V0h242.4c70.7,0,97.4,29.7,97.4,73.3v47c0,43.5-26.7,73.3-97.4,73.3H505.6z
				 M729.6,72.1c0-11.6-11.9-24.8-25.7-24.8H505.6v98.5h198.8c13.8,0,25.2-11.4,25.2-22.6L729.6,72.1L729.6,72.1z"/>
		</g>
		<g>
			<path class="st0" d="M1885.5,303.5L1688.6,82.3v221.1h-61.2V0h60.8l170.2,187.9V0h61.6v303.5L1885.5,303.5L1885.5,303.5z"/>
			<path class="st0" d="M1521.1,0l-73.8,210.8L1386.3,0c0,0-69,0-69,0l-61,210.8L1182.6,0h-65.2L1231,303.5h53.8l66.7-229.2
				c9,13.8,66.7,229.2,67.3,229.2h53.8L1586.3,0H1521.1z"/>
		</g>
		<g>
			<path class="st0" d="M1058.1,66.3L1032.1,0h-54.4v64.5c34.4,8,60.1,38.9,60.1,75.7s-25.7,67.7-60.1,75.7v87.5h176.6L1058.1,66.3z
				"/>
			
				<radialGradient id="SVGID_1_" cx="960" cy="282.3981" r="55.14" gradientTransform="matrix(1 0 0 -1 0 422.9481)" gradientUnits="userSpaceOnUse">
				<stop  offset="0.1948" style="stop-color:#67B6CE"/>
				<stop  offset="0.3054" style="stop-color:#5CA5BD"/>
				<stop  offset="0.5258" style="stop-color:#3F7790"/>
				<stop  offset="0.8325" style="stop-color:#102F49"/>
				<stop  offset="0.9324" style="stop-color:#001630"/>
			</radialGradient>
			<circle class="st1" cx="960" cy="140.6" r="55.1"/>
			<path class="st0" d="M882.2,140.3c0-36.9,25.7-67.7,60.1-75.7V0h-54.4l-26.1,66.3l-96.1,237.2h176.6V216
				C907.9,208,882.2,177.1,882.2,140.3z"/>
		</g>
	</g>
</g>
<g id="Thin_Art">
</g>
</svg>
