<?xml version="1.0" encoding="utf-8"?>
<!-- Generator: Adobe Illustrator 27.3.1, SVG Export Plug-In . SVG Version: 6.00 Build 0)  -->
<svg version="1.1" xmlns="http://www.w3.org/2000/svg" xmlns:xlink="http://www.w3.org/1999/xlink" x="0px" y="0px"
	 viewBox="0 0 1920 523.5" style="enable-background:new 0 0 1920 523.5;" xml:space="preserve">
<style type="text/css">
	.st0{fill:url(#SVGID_1_);}
	.st1{fill:#071D30;}
</style>
<g id="Layer_1">
	<g>
		<g>
			<path d="M0,303.5v-50.2h274.8c19.8,0,32.5-3.4,32.5-18.1v-48.5c0-13.8-13.1-18.5-32.5-18.5H123.1c-71.1,0-98.3-29.7-98.3-73.7
				V73.7C24.8,29.7,52,0,123.1,0h274.8v49.8H123.1c-18.5,0-33,9.7-33,23.5v21.5c0,12.9,13.2,23.5,33,23.5h151.7
				c71.1,0,98.3,24.8,98.3,68.8v42.2c0,44-27.2,74.1-98.3,74.1L0,303.5L0,303.5z"/>
			<path d="M505.6,193.6v109.9h-62.8V0h242.4c70.7,0,97.4,29.7,97.4,73.3v47c0,43.5-26.7,73.3-97.4,73.3H505.6z M729.6,72.1
				c0-11.6-11.9-24.8-25.7-24.8H505.6v98.5h198.8c13.8,0,25.2-11.4,25.2-22.6L729.6,72.1L729.6,72.1z"/>
		</g>
		<g>
			<path d="M1885.5,303.5L1688.6,82.3v221.1h-61.2V0h60.8l170.2,187.9V0h61.6v303.5L1885.5,303.5L1885.5,303.5z"/>
			<path d="M1521.1,0l-73.8,210.8L1386.3,0c0,0-69,0-69,0l-61,210.8L1182.6,0h-65.2L1231,303.5h53.8l66.7-229.2
				c9,13.8,66.7,229.2,67.3,229.2h53.8L1586.3,0H1521.1z"/>
		</g>
		<g>
			<path d="M1058.1,66.3L1032.1,0h-54.4v64.5c34.4,8,60.1,38.9,60.1,75.7s-25.7,67.7-60.1,75.7v87.5h176.6L1058.1,66.3z"/>
			
				<radialGradient id="SVGID_1_" cx="960" cy="310.9054" r="55.14" gradientTransform="matrix(1 0 0 -1 0 451.4554)" gradientUnits="userSpaceOnUse">
				<stop  offset="0.1948" style="stop-color:#67B6CE"/>
				<stop  offset="0.3054" style="stop-color:#5CA5BD"/>
				<stop  offset="0.5258" style="stop-color:#3F7790"/>
				<stop  offset="0.8325" style="stop-color:#102F49"/>
				<stop  offset="0.9324" style="stop-color:#001630"/>
			</radialGradient>
			<circle class="st0" cx="960" cy="140.6" r="55.1"/>
			<path d="M882.2,140.3c0-36.9,25.7-67.7,60.1-75.7V0h-54.4l-26.1,66.3l-96.1,237.2h176.6V216C907.9,208,882.2,177.1,882.2,140.3z"
				/>
		</g>
	</g>
</g>
<g id="Thin_Art">
	<g>
		<path class="st1" d="M1038.6,425.4v-9.1c0-16.7-7.7-36.7-44.4-36.7h-114v143.9h21.5v-61.4h79.5l35.1,61.4h23.6l-35.5-62
			C1026.2,459,1038.6,446.1,1038.6,425.4z M1017.2,425.6c0,12.1-7.5,17.9-23,17.9h-92.5v-45.4h92.5c20.6,0,23,10.3,23,18.1
			L1017.2,425.6L1017.2,425.6z"/>
		<polygon class="st1" points="1189.8,379.5 1189.8,398.1 1263.4,398.1 1263.4,523.5 1284.7,523.5 1284.7,398.1 1355.8,398.1 
			1355.8,379.5 		"/>
		<path class="st1" d="M621.6,379.5l-95.1,143.9h24.3l39.9-60.9H666l39.4,60.9h24.7l-94.4-143.9H621.6z M654,444H603l25.7-39.2
			L654,444z"/>
	</g>
</g>
</svg>
